<svg width="24" height="24" viewBox="0 0 24 24" fill="none" xmlns="http://www.w3.org/2000/svg">
<g clip-path="url(#clip0_135_466)">
<path d="M12 0C5.371 0 0 5.371 0 12C0 17.086 3.164 21.426 7.629 23.176C7.523 22.226 7.426 20.77 7.668 19.73L9.074 13.766C9.074 13.766 8.719 13.046 8.719 11.984C8.719 10.316 9.684 9.07 10.887 9.07C11.91 9.07 12.407 9.84 12.407 10.762C12.407 11.793 11.75 13.332 11.41 14.758C11.129 15.953 12.012 16.926 13.187 16.926C15.32 16.926 16.961 14.676 16.961 11.43C16.961 8.559 14.898 6.55 11.949 6.55C8.535 6.55 6.531 9.11 6.531 11.758C6.531 12.789 6.93 13.895 7.426 14.496C7.523 14.613 7.536 14.719 7.508 14.84C7.39627 15.2931 7.28561 15.7464 7.176 16.2C7.121 16.422 7 16.469 6.773 16.36C5.273 15.664 4.336 13.473 4.336 11.71C4.336 7.926 7.086 4.45 12.266 4.45C16.43 4.45 19.664 7.414 19.664 11.383C19.664 15.516 17.054 18.843 13.437 18.843C12.223 18.843 11.078 18.215 10.687 17.469C10.687 17.469 10.086 19.758 9.937 20.32C9.668 21.363 8.937 22.668 8.445 23.465C9.59645 23.8207 10.7949 24.001 12 24C18.629 24 24 18.629 24 12C24 5.371 18.629 0 12 0Z" fill="white"/>
</g>
<defs>
<clipPath id="clip0_135_466">
<rect width="24" height="24" fill="white"/>
</clipPath>
</defs>
</svg>
