<svg width="28" height="24" viewBox="0 0 28 24" fill="none" xmlns="http://www.w3.org/2000/svg">
<path d="M8.7962 22.9595C19.362 22.9595 25.1426 14.1233 25.1426 6.47435C25.1426 6.22588 25.1426 5.97741 25.1314 5.72894C26.2571 4.90634 27.2285 3.88808 28 2.72188C26.9495 3.18993 25.8361 3.49869 24.696 3.63812C25.8973 2.91288 26.7967 1.77264 27.2272 0.429176C26.0981 1.10465 24.862 1.57888 23.5732 1.83106C23.0367 1.25305 22.3882 0.792291 21.6679 0.477324C20.9476 0.162358 20.1709 -0.000105479 19.3858 5.13789e-08C17.8616 0.00112184 16.4001 0.612204 15.3223 1.69905C14.2445 2.7859 13.6385 4.25967 13.6374 5.79671C13.6374 6.24847 13.6934 6.68894 13.783 7.11812C11.4981 7.00241 9.26277 6.40341 7.2223 5.36C5.18182 4.3166 3.38177 2.85212 1.939 1.06165C1.2058 2.33867 0.981973 3.84919 1.31297 5.28655C1.64397 6.72392 2.50497 7.98041 3.7212 8.80094C2.80991 8.76912 1.91882 8.52151 1.12 8.07812V8.15718C1.12123 9.49454 1.58022 10.7905 2.41943 11.8261C3.25863 12.8616 4.4266 13.5733 5.726 13.8409C5.23355 13.9779 4.72483 14.0463 4.214 14.0442C3.843 14.0442 3.4846 14.0104 3.136 13.9426C3.50229 15.0943 4.21682 16.1015 5.17941 16.8231C6.142 17.5446 7.30439 17.9443 8.5036 17.9661C6.46877 19.5791 3.95467 20.4544 1.3664 20.4508C0.9072 20.4508 0.448 20.4282 0 20.3718C2.62739 22.0625 5.67942 22.9604 8.7962 22.9595Z" fill="white"/>
</svg>
